<svg id="Layer_1" data-name="Layer 1" xmlns="http://www.w3.org/2000/svg" viewBox="0 0 469.11 267.62"><defs><style>.cls-1{fill:#93cf41;}.cls-2{fill:#231f20;}.cls-3{fill:#fff;}</style></defs><title>logo</title><path class="cls-1" d="M175.35,304.61c-33,9.58-60,37.72-68.15,71.14-1.08,4.42-1.62,9.73,1.6,12.95,2.81,2.81,7.29,2.81,11.26,2.56a395.27,395.27,0,0,0,85.45-14.9c7.35-2.13,14.8-4.56,20.88-9.21,13-9.94,17-27.5,20.13-43.6-.31,8.46-.49,17.46,3.86,24.73,3.78,6.31,10.41,10.31,16.94,13.73a233.48,233.48,0,0,0,109,26.55c5.87,0,12.18-.43,16.81-4.05,5.12-4,6.89-11,7.17-17.49.94-21.43-10.59-41.53-24.54-57.82-21.23-24.77-52.31-44.73-84.66-40.49,23.1-9.27,37.66-33.26,42.37-57.7s1.18-49.62-2.36-74.26c-5.1,12.1-21.41,12.91-34.36,15.08-28.52,4.78-52.52,25.14-68.35,49.34S203.72,253.36,195.07,281c8.51-22.51,2.06-49.89-15.6-66.25-8.74-8.09-23.31-13.17-32-5,28.08,15.84,45.36,49,42.23,81.09-.7,7.2-4.26,16-11.48,16-2,0-4-.69-5.86-.16s-3.2,3.33-1.57,4.43Z" transform="translate(-15.44 -128.48)"/><path class="cls-2" d="M15.44,380.63l15.87,1.52c10.06,1,24.5,1.88,41.77,2.3s37.41.1,58.88-1.54c10.73-.79,21.79-2,33-3.45s22.61-3.26,33.63-5.65,21.59-5.63,29.64-12.06a28.76,28.76,0,0,0,8.87-11.18,18.46,18.46,0,0,0,.92-3.15l.19-1.39c0-.66.07-1.45,0-2a15.83,15.83,0,0,0-1.58-5.93c-4-8.05-13-13.33-21.77-13.94s-17.92,2.28-22.52,8.05a14.34,14.34,0,0,0,.92,18.61c4.53,4.76,10.72,5.74,15.56,5.67a21.9,21.9,0,0,0,10.91-3,12.81,12.81,0,0,0,2.42-1.88l.75-.75-.65.84a13.44,13.44,0,0,1-2.2,2.23A21.53,21.53,0,0,1,209,358.42a26.63,26.63,0,0,1-8.73-.31,21.64,21.64,0,0,1-4.92-1.6,19.3,19.3,0,0,1-4.62-3,18.61,18.61,0,0,1-6.06-10.85,18.83,18.83,0,0,1,3.1-13.74c5.91-8.37,16.63-12.34,27.52-12.1s23.05,5.93,29.17,17.43a23.83,23.83,0,0,1,2.74,9.79c.05.83,0,1.42,0,2.14,0,1.26-.16,1.81-.25,2.75a27,27,0,0,1-1.26,4.89,35.91,35.91,0,0,1-11.48,15.39,60.22,60.22,0,0,1-16.2,9.19,115.18,115.18,0,0,1-17.36,5.11c-11.63,2.39-23.09,4-34.55,5.45s-22.72,2.12-33.65,2.66-21.53.44-31.55.22-19.47-.88-28.17-1.72-16.64-1.85-23.65-2.91S36,385,31,384.05s-8.87-1.9-11.52-2.48Z" transform="translate(-15.44 -128.48)"/><path class="cls-2" d="M484.56,380.63l-4.07.94c-2.65.58-6.51,1.6-11.52,2.48s-11.07,2-18.08,3.13-14.94,2.17-23.64,2.91-18.15,1.46-28.17,1.72-20.61.36-31.55-.22-22.24-1.19-33.66-2.66-22.91-3.06-34.54-5.45A115.18,115.18,0,0,1,282,378.37a60.07,60.07,0,0,1-16.2-9.19,35.91,35.91,0,0,1-11.48-15.39A27,27,0,0,1,253,348.9c-.09-.94-.21-1.49-.25-2.75,0-.72,0-1.31,0-2.14a23.83,23.83,0,0,1,2.74-9.79c6.12-11.5,18.21-17.12,29.17-17.43s21.61,3.73,27.52,12.1a18.83,18.83,0,0,1,3.1,13.74,18.57,18.57,0,0,1-6.07,10.85,19.06,19.06,0,0,1-4.61,3,21.64,21.64,0,0,1-4.92,1.6,26.63,26.63,0,0,1-8.73.31,21.53,21.53,0,0,1-11.08-4.48,13.44,13.44,0,0,1-2.2-2.23l-.65-.84.75.75a12.81,12.81,0,0,0,2.42,1.88,21.9,21.9,0,0,0,10.91,3c4.84.07,11-.91,15.56-5.67a14.34,14.34,0,0,0,.92-18.61c-4.6-5.77-13.73-8.7-22.53-8.05s-17.8,5.89-21.76,13.94a15.83,15.83,0,0,0-1.58,5.93c0,.54,0,1.33,0,2l.19,1.39a18.46,18.46,0,0,0,.92,3.15,28.82,28.82,0,0,0,8.86,11.18c8.06,6.43,18.65,9.69,29.65,12.06s22.49,4.13,33.63,5.65,22.25,2.66,33,3.45c21.47,1.64,41.61,1.9,58.88,1.54s31.71-1.28,41.77-2.3Z" transform="translate(-15.44 -128.48)"/><path class="cls-3" d="M262.08,383.07A12.08,12.08,0,1,1,250,371,12.08,12.08,0,0,1,262.08,383.07Z" transform="translate(-15.44 -128.48)"/><path class="cls-2" d="M262.08,383.07a11.11,11.11,0,0,1-.4,3.23,13.26,13.26,0,0,1-4.74,7.15,12.94,12.94,0,0,1-5.48,2.44,13.33,13.33,0,0,1-3.34.16,13,13,0,0,1-9.6-5.36,13,13,0,0,1,0-15.24,12.78,12.78,0,0,1,6.06-4.61,13,13,0,0,1,12.36,1.84,13.32,13.32,0,0,1,4.74,7.16A11.11,11.11,0,0,1,262.08,383.07Zm0,0a11.31,11.31,0,0,0-.49-3.21,11,11,0,0,0-5.11-6.49,11.67,11.67,0,0,0-5.17-1.47,11.11,11.11,0,0,0-5.68,1.32,11.71,11.71,0,0,0-4.27,4.12,11.17,11.17,0,0,0,0,11.47,11.66,11.66,0,0,0,4.28,4.12,10.81,10.81,0,0,0,4.24,1.28c.41,0,.94,0,1.41,0a11.74,11.74,0,0,0,5.2-1.47,11.07,11.07,0,0,0,5.11-6.5A11.31,11.31,0,0,0,262.08,383.07Z" transform="translate(-15.44 -128.48)"/><path class="cls-3" d="M222.75,345.35a7.94,7.94,0,1,1-7.93-7.93A7.93,7.93,0,0,1,222.75,345.35Z" transform="translate(-15.44 -128.48)"/><path class="cls-2" d="M222.75,345.35a7.36,7.36,0,0,1-.25,2.13,9.09,9.09,0,0,1-3.05,4.8,8.62,8.62,0,0,1-3.64,1.77,9.12,9.12,0,0,1-2.27.18,8.83,8.83,0,0,1-6.74-3.55,8.93,8.93,0,0,1,0-10.66,8.68,8.68,0,0,1,4.29-3.11,8.83,8.83,0,0,1,8.38,1.5,9.18,9.18,0,0,1,3,4.81A7.36,7.36,0,0,1,222.75,345.35Zm0,0a7,7,0,0,0-.34-2.1A6.85,6.85,0,0,0,219,339.1a7.1,7.1,0,0,0-6.87.19,7.55,7.55,0,0,0-2.5,2.62,6.94,6.94,0,0,0-.89,3.44,7.14,7.14,0,0,0,3.39,6.07,6.57,6.57,0,0,0,1.66.73,6.79,6.79,0,0,0,1,.19,7.48,7.48,0,0,0,.87.07,7.62,7.62,0,0,0,3.38-.8,6.9,6.9,0,0,0,3.41-4.16A7,7,0,0,0,222.75,345.35Z" transform="translate(-15.44 -128.48)"/><circle class="cls-3" cx="268.85" cy="216.87" r="7.93"/><path class="cls-2" d="M292.23,345.35a7.36,7.36,0,0,1-.25,2.13,9.09,9.09,0,0,1-3.05,4.8,8.62,8.62,0,0,1-3.64,1.77,9.16,9.16,0,0,1-2.27.18,8.86,8.86,0,0,1-6.75-3.55,9,9,0,0,1,0-10.66,8.65,8.65,0,0,1,4.28-3.11,8.82,8.82,0,0,1,8.38,1.5,9.15,9.15,0,0,1,3.05,4.81A7.36,7.36,0,0,1,292.23,345.35Zm0,0a7.48,7.48,0,0,0-.34-2.1,6.87,6.87,0,0,0-3.42-4.15,7.08,7.08,0,0,0-6.86.19,7.55,7.55,0,0,0-2.5,2.62,6.94,6.94,0,0,0-.89,3.44,7.1,7.1,0,0,0,3.39,6.07,6.66,6.66,0,0,0,1.65.73,7,7,0,0,0,1,.19,7.3,7.3,0,0,0,.87.07,7.62,7.62,0,0,0,3.38-.8,6.9,6.9,0,0,0,3.41-4.16A7.48,7.48,0,0,0,292.23,345.35Z" transform="translate(-15.44 -128.48)"/><path class="cls-2" d="M185.36,303c-56.53-.57-93.63,36.61-102.32,87,.65-.18,9.19-.62,9.86-.73,8.94-48.18,38.7-80.12,93.87-83C187.53,306.24,186.14,303,185.36,303Z" transform="translate(-15.44 -128.48)"/><path class="cls-2" d="M186.77,306.28c40-24,91.8-41.47,138.56-30,22.71,5.57,45.58,18.72,59,38.13,4.82,6.94,8.54,14.55,12.25,22.14,5,10.22,10.65,20.9,13,32.13.5,2.4,2.06,22.95,7.61,15.9,2.85-3.62-2.08-14-2.94-18.15-9.45-45.56-38.38-80.36-83.48-93.84-49.87-14.91-101.18,2.23-143.14,29.85C186.77,303,185.82,306.85,186.77,306.28Z" transform="translate(-15.44 -128.48)"/><path class="cls-2" d="M315.64,150.38a1.27,1.27,0,0,1-1.2-1,1.32,1.32,0,0,1,.58-1.51c8.34-4.84,13.1-10,14.15-15.3a1.83,1.83,0,0,1,1.88-1.59,2.64,2.64,0,0,1,2.28,1.34,1.78,1.78,0,0,1-.22,1.93c-.83,1.11-1.57,2.23-2.32,3.35a36.08,36.08,0,0,1-5,6.42,28.49,28.49,0,0,1-9.69,6.28Z" transform="translate(-15.44 -128.48)"/><path class="cls-2" d="M315.93,149.86a28.27,28.27,0,0,0,9.53-6.18c3-2.9,4.8-6.4,7.27-9.71,1.47-2-2.6-3.83-3.1-1.31-1.39,7-8.61,12.27-14.37,15.61-.82.48-.28,1.94.67,1.59Z" transform="translate(-15.44 -128.48)"/><path class="cls-2" d="M318.85,148.32c0-.79-.79-1.59-2.77-1.59a116.44,116.44,0,0,0-45.49,11.77c-22.38,11.05-40.53,29.35-52.54,51.13C203,237,200.75,267.42,196.16,297.75a4.25,4.25,0,0,0,3.59-.47c3.62-29.3,7.77-62.28,23.55-87.86a146,146,0,0,1,37.82-41c16.41-12,34.44-17.08,54.83-18.12C317.88,150.23,318.87,149.24,318.85,148.32Z" transform="translate(-15.44 -128.48)"/><path class="cls-2" d="M334.58,128.86l-.52-.38h-.23a.92.92,0,0,0-.79.44l-.15.68.16.25c17,26.34,22.76,65.33,13.93,94.84-6.17,20.63-18.79,35.66-36.48,43.46-1.71.76-2.82,2-2.63,2.86a1,1,0,0,0,1.08.73h0a4.15,4.15,0,0,0,1.51-.38c19.18-8.2,33.23-25.87,39.55-49.78C358.38,190,352,151.82,334.58,128.86Z" transform="translate(-15.44 -128.48)"/><path class="cls-2" d="M333.44,129.59c26.7,41.3,20.33,116.68-30.27,139-2.89,1.28,4.25,3.57,7.11,2.35,51-21.78,53.39-103,23.93-141.78a.44.44,0,0,0-.77.44Z" transform="translate(-15.44 -128.48)"/><path class="cls-2" d="M211.7,287c52.27-24.92,93.53-67.42,118.53-119.48.74-1.54-1.54-2.89-2.3-1.35-25.51,52.4-65.32,92.74-116.36,120.6a.13.13,0,1,0,.13.23Z" transform="translate(-15.44 -128.48)"/><path class="cls-2" d="M248.15,234.29c2.06,6.79,4,13.63,6,20.42.21.69,1.3.39,1.07-.3-2.26-6.74-4.68-13.43-7-20.16a.08.08,0,0,0-.15,0Z" transform="translate(-15.44 -128.48)"/><path class="cls-2" d="M333.28,222.58c-15.37,10.85-32.58,15.86-51.36,15.49a1,1,0,0,0,0,2.06,82,82,0,0,0,51.49-17.33c.12-.1,0-.31-.13-.22Z" transform="translate(-15.44 -128.48)"/><path class="cls-2" d="M283.39,173.74A46.09,46.09,0,0,0,296.28,211a1.23,1.23,0,0,0,1.74-1.74c-9.59-9.7-14.78-21.76-14.42-35.47a.11.11,0,1,0-.21,0Z" transform="translate(-15.44 -128.48)"/><path class="cls-2" d="M161.6,200.35a.74.74,0,0,1,.16-.66c2.87-4.72,5.6-9.89,3-15.48-1-2.25-3.12-4.29-5.6-4.26-4.09.05-7.08,3.83-10.06,6.11a103.43,103.43,0,0,0-9.6,8.26c-6.94,6.84-12.68,15.27-15,24.83a6.44,6.44,0,0,0,.15,4.62,5.87,5.87,0,0,0,1.52,1.66,8.47,8.47,0,0,0,2.67,1.49,7.93,7.93,0,0,0,6.89-1.58c2.6-2,3.85-5.18,6.56-7a5.46,5.46,0,0,1,3.92-.94c9.33,1.84,18,12.25,23.16,19.51a102.14,102.14,0,0,1,14.45,29.92c3.07,10.2,5.22,21.79,2.79,32.36a1.61,1.61,0,0,0,.3,1.43c-.4,1.1-.85,2.18-1.34,3.25a.42.42,0,0,0,.57.57,8.7,8.7,0,0,0,3.23-3.4,1.58,1.58,0,0,0,.6-.92c.06-.24.08-.48.14-.71a12.94,12.94,0,0,0,.76-4.57c2.42-19.44-6.4-36.94-16.59-53.58-5.74-9.38-13.34-20-23.83-24.46-3-1.29-6.73-1.6-9.51.18-3.6,2.3-7.27,12-12.68,7.53-3.8-3.14-.45-9.23,1.19-12.7a48.83,48.83,0,0,1,8.18-12.05,102.89,102.89,0,0,1,8-7.64c3.51-3.09,8.14-7.64,12.7-9.05a3.75,3.75,0,0,1,3.3.38,4.74,4.74,0,0,1,1.53,2.51c3.16,10.28-6.88,16.66-13.56,22.44a44.47,44.47,0,0,0-5.63,5.85,76,76,0,0,1,14.61-11.7,1.15,1.15,0,0,1,.66-.23,1.2,1.2,0,0,1,.55.25C180.52,217.28,196,239,198.27,264.87a75.76,75.76,0,0,1-3.5,30.34c-.51,1.59,2,2.27,2.49.69A80.54,80.54,0,0,0,201,271.05c.95.67,2.55.31,2.42-1.15-2.27-25.14-14.45-50.37-35.36-65.17-2-1.44-4.37-2.51-6.22-4.14A.9.9,0,0,1,161.6,200.35Zm-1.6,1.49c.18.19.4.33.59.52l-.77-.4Z" transform="translate(-15.44 -128.48)"/><path class="cls-1" d="M260.15,385.79a8.86,8.86,0,1,1-8.86-8.86A8.86,8.86,0,0,1,260.15,385.79Z" transform="translate(-15.44 -128.48)"/></svg>